# xmcd
#
# Track frame offsets: 
#        150
#        18887
#        36060
#        51530
#        67187
#        86767
#        99877
#        116357
#        133887
#        154615
#        175200
#        191320
#        206630
#        222652
#        240805
#        258720
#        274772
#        288992
#        302730
#        323360
#
# Disc length: 4527 seconds
#
# Revision: 3
# Processed by: cddbd v1.5.2PL0 Copyright (c) Steve Scherf et al.
# Submitted via: ExactAudioCopy v1.3
#
DISCID=1c11ad14
DTITLE=The Hit Songs [CD3) - Jimmy Jam and Terry Lewis
DYEAR=1996
DGENRE=Funk
TTITLE0=Janet Jackson - Escapade
TTITLE1=Ralph Tresvant - Sensitivity
TTITLE2=Janet Jackson - Alright
TTITLE3=Johnny Gill - Rub You The Right Way
TTITLE4=Janet Jackson - Come Back To Me
TTITLE5=Time - Jerk Out
TTITLE6=Janet Jackson - Lonely
TTITLE7=Johnny Gill - Wrap My Body Tight
TTITLE8=Janet Jackson - Love Will Never Do (Without You)
TTITLE9=Ralph Tresvant - Do What I Gotta Do
TTITLE10=Karyn White - Romantic
TTITLE11=Alexander O'Neal - All True Man
TTITLE12=Janet Jackson - Livin' In A World (They Didn't Make)
TTITLE13=Sounds Of Blackness - Optimistic
TTITLE14=Karyn White - One Heart
TTITLE15=Alexander O'Neal - Sentimental
TTITLE16=Sounds Of Blackness - The Pressure (Part 1)
TTITLE17=Mint Condition - Breakin' My Heart (Pretty Brown Eyes)
TTITLE18=Lo-Key - I Got A Thang 4 Ya
TTITLE19=Janet Jackson And Luther Vandross - The Best Things In Life A
TTITLE19=re Free
EXTD=
EXTT0=
EXTT1=
EXTT2=
EXTT3=
EXTT4=
EXTT5=
EXTT6=
EXTT7=
EXTT8=
EXTT9=
EXTT10=
EXTT11=
EXTT12=
EXTT13=
EXTT14=
EXTT15=
EXTT16=
EXTT17=
EXTT18=
EXTT19=
PLAYORDER=
